<?xml version="1.0" encoding="utf-8"?>
<svg id="sw-js-blob-svg" viewBox="8.659 8.4 83.069 83.587" version="1.1" xmlns="http://www.w3.org/2000/svg">
  <defs>
    <linearGradient id="sw-gradient" x1="0" x2="1" y1="1" y2="0">
      <stop id="stop1" stop-color="rgba(248, 117, 55, 1)" offset="0"/>
      <stop id="stop2" stop-color="rgba(251, 168, 31, 1)" offset="1"/>
    </linearGradient>
  </defs>
  <path fill="url(#sw-gradient)" d="M 28.5 -33.4 C 35.7 -27.8 29.881 -18.21 29.415 -8.288 C 28.901 2.663 29.995 10.77 31.874 20.1 C 34.518 33.229 23.738 37.477 14.6 38.9 C 6.157 40.215 -1.309 40.23 -13.392 37.831 C -25.475 35.432 -34.642 27.687 -34 19 C -33.358 10.314 -30.748 0.391 -29.648 -9.309 C -28.548 -18.909 -34.5 -26.8 -27.4 -32.4 C -20.4 -38 -10.2 -39.7 0.2 -40 C 10.6 -40.2 21.2 -39.1 28.5 -33.4 Z" width="100%" height="100%" transform="translate(50 50)" stroke-width="0" style="transition: all 0.3s ease 0s;" stroke="url(#sw-gradient)"/>
</svg>